<svg width="31" height="33" viewBox="0 0 31 33" fill="none" xmlns="http://www.w3.org/2000/svg">
<rect opacity="0.3" y="0.211121" width="31" height="31.9644" rx="7" fill="black"/>
<path d="M18 6.20444H11C10.4696 6.20444 9.96086 6.41492 9.58579 6.78957C9.21071 7.16423 9 7.67237 9 8.20222V22.1867C9 22.7165 9.21071 23.2246 9.58579 23.5993C9.96086 23.974 10.4696 24.1844 11 24.1844H14V27.1811L16 26.1822L18 27.1811V24.1844H21C21.5304 24.1844 22.0391 23.974 22.4142 23.5993C22.7893 23.2246 23 22.7165 23 22.1867V11.1989L18 6.20444ZM18 19.19V21.1878L16 20.1889L14 21.1878V19.19L12 18.1911L14 17.1922V15.1944L16 16.1933L18 15.1944V17.1922L20 18.1911L18 19.19ZM17 12.1978V7.70277L21.5 12.1978H17Z" fill="white"/>
</svg>
