<svg width="31" height="33" viewBox="0 0 31 33" fill="none" xmlns="http://www.w3.org/2000/svg">
<rect opacity="0.3" y="0.212219" width="31" height="31.9644" rx="7" fill="black"/>
<path d="M22.9 10.2167C22.0667 10.0333 21.45 9.04167 20.6417 8.86667C19.8334 8.69167 18.8334 9.325 18.0167 9.14167C17.5871 8.99053 17.129 8.93753 16.6762 8.98656C16.2234 9.03559 15.7874 9.1854 15.4 9.425L15.3417 21.3333L15.1667 22.1667C14.8667 23.5167 15.725 24.85 17.075 25.15C18.4167 25.4417 19.75 24.5917 20.05 23.2417L20.225 22.4083L25.1667 11.5667C24.9154 11.1851 24.5809 10.8654 24.1883 10.6315C23.7957 10.3977 23.3553 10.2559 22.9 10.2167ZM18.425 22.8833C18.325 23.3417 17.875 23.6333 17.4167 23.5417C16.95 23.4417 16.6584 23 16.7584 22.525L17.475 19.25C17.5182 19.0376 17.6424 18.8504 17.8214 18.728C18.0003 18.6057 18.2198 18.5579 18.4334 18.5948C18.647 18.6316 18.8378 18.7503 18.9654 18.9255C19.093 19.1007 19.1472 19.3187 19.1167 19.5333C19.1167 19.5667 19.1084 19.5917 19.1 19.625L18.425 22.8833ZM14.1 24.95C13.775 24.4417 13.5667 23.875 13.5 23.2833L12.8667 20.5C12.75 20.0583 13.0084 19.6 13.5 19.4667C13.5609 19.4583 13.6225 19.4583 13.6834 19.4667V10.025C12.925 10.025 12.0167 9.55 11.3167 9.71667C10.6167 9.88333 9.90837 10.8667 9.10004 11.05C8.17504 11.1333 7.34171 11.625 6.83337 12.4L11.775 23.2333L11.95 24.0667C12.0923 24.7138 12.4853 25.2781 13.043 25.6358C13.6007 25.9936 14.2775 26.1155 14.925 25.975H15.0084C14.65 25.6833 14.3334 25.3417 14.1 24.95Z" fill="white"/>
</svg>
