<svg width="1448" height="100" viewBox="0 0 1448 100" fill="none" xmlns="http://www.w3.org/2000/svg">
<path fill-rule="evenodd" clip-rule="evenodd" d="M-4.02212e-07 2.28134L7.03889 18.6096C15.0833 34.9379 29.1611 67.3433 44.2444 80.1547C58.3222 92.715 73.4055 85.43 87.4833 78.3963C102.567 71.1114 116.644 63.8265 131.728 51.2662C145.806 38.4548 160.889 20.3681 175.972 27.653C190.05 34.938 205.133 67.3433 219.211 81.9132C234.294 96.483 248.372 92.715 263.456 78.3963C277.533 63.8265 292.617 38.4548 306.694 34.938C321.778 31.1699 336.861 49.2566 350.939 54.7831C366.022 60.3096 380.1 53.0247 395.183 53.0247C409.261 53.0247 424.344 60.3096 438.422 51.2663C453.506 42.2229 467.583 16.8513 482.667 22.1266C497.75 27.6531 511.828 63.8265 526.911 67.3434C540.989 71.1115 556.072 42.2229 570.15 40.2133C585.233 38.4549 599.311 63.8265 614.394 78.3964C628.472 92.7151 643.556 96.4831 658.639 87.4398C672.717 78.3964 687.8 56.5416 701.878 47.4983C716.961 38.4549 731.039 42.223 746.122 47.4983C760.2 53.0248 775.283 60.3097 789.361 63.8266C804.444 67.3434 819.528 67.3434 833.606 58.3001C848.689 49.2567 862.767 31.17 877.85 25.8947C891.928 20.3682 907.011 27.6531 921.089 31.17C936.172 34.9381 950.25 34.9381 965.333 38.4549C980.417 42.223 994.494 49.2567 1009.58 58.3001C1023.66 67.3435 1038.74 78.3965 1052.82 67.3435C1067.9 56.5417 1081.98 24.1363 1097.06 9.56646C1111.14 -5.0034 1126.22 -1.23533 1141.31 9.56647C1155.38 20.3683 1170.47 38.455 1184.54 36.6966C1199.63 34.9381 1213.71 13.0833 1228.79 15.093C1242.87 16.8514 1257.95 42.2231 1272.03 56.5417C1287.11 71.1116 1302.19 74.6285 1316.27 76.3869C1331.36 78.3965 1345.43 78.3965 1360.52 65.5851C1374.59 53.0249 1389.68 27.6532 1403.76 24.1364C1418.84 20.3683 1432.92 38.455 1440.96 47.4984L1448 56.5418L1448 100L1440.96 100C1432.92 100 1418.84 100 1403.76 100C1389.68 100 1374.59 100 1360.52 100C1345.43 100 1331.36 100 1316.27 100C1302.19 100 1287.11 100 1272.03 100C1257.95 100 1242.87 100 1228.79 100C1213.71 100 1199.63 100 1184.54 100C1170.47 100 1155.38 100 1141.31 100C1126.22 100 1111.14 100 1097.06 100C1081.98 100 1067.9 100 1052.82 100C1038.74 100 1023.66 100 1009.58 100C994.494 100 980.417 100 965.333 100C950.25 100 936.172 100 921.089 100C907.011 100 891.928 100 877.85 100C862.767 100 848.689 100 833.606 100C819.528 100 804.444 100 789.361 100C775.283 100 760.2 100 746.122 100C731.039 100 716.961 100 701.878 100C687.8 100 672.717 100 658.639 100C643.556 100 628.472 100 614.394 100C599.311 100 585.233 100 570.15 100C556.072 100 540.989 100 526.911 100C511.828 100 497.75 100 482.667 100C467.583 100 453.506 100 438.422 100C424.344 100 409.261 99.9999 395.183 99.9999C380.1 99.9999 366.022 99.9999 350.939 99.9999C336.861 99.9999 321.778 99.9999 306.694 99.9999C292.617 99.9999 277.533 99.9999 263.456 99.9999C248.372 99.9999 234.294 99.9999 219.211 99.9999C205.133 99.9999 190.05 99.9999 175.972 99.9999C160.889 99.9999 145.806 99.9999 131.728 99.9999C116.644 99.9999 102.567 99.9999 87.4833 99.9999C73.4055 99.9999 58.3222 99.9999 44.2444 99.9999C29.1611 99.9999 15.0833 99.9999 7.03887 99.9999L-1.76305e-05 99.9999L-4.02212e-07 2.28134Z" fill="#1E549F"/>
</svg>
